<?xml version="1.0" encoding="utf-8"?>
<!-- Generator: Adobe Illustrator 23.0.2, SVG Export Plug-In . SVG Version: 6.00 Build 0)  -->
<svg version="1.1" id="Layer_1" xmlns="http://www.w3.org/2000/svg" xmlns:xlink="http://www.w3.org/1999/xlink" x="0px" y="0px"
	 viewBox="0 0 24 24" style="enable-background:new 0 0 24 24;" xml:space="preserve">
<style type="text/css">
	.st0{fill:#21A366;}
	.st1{fill:none;}
	.st2{fill:#107C41;}
	.st3{fill:#33C481;}
	.st4{fill:#185C37;}
	.st5{opacity:0.5;}
	.st6{fill:#FFFFFF;}
</style>
<g id="_x32_4_14_">
	<path class="st0" d="M16,1H7C6.4,1,6,1.4,6,2v5l10,5l4,1.5l4-1.5V7L16,1z"/>
	<rect y="0" class="st1" width="24" height="24"/>
	<rect x="6" y="7" class="st2" width="10" height="5"/>
	<path class="st3" d="M24,2v5h-8V1h7C23.5,1,24,1.5,24,2z"/>
	<path class="st4" d="M16,12H6v5v0V22c0,0.6,0.4,1,1,1h16c0.6,0,1-0.4,1-1v-5L16,12z"/>
	<path class="st5" d="M13.8,6H6v14h7.6c0.7,0,1.4-0.7,1.4-1.4V7.2C15,6.5,14.5,6,13.8,6z"/>
	<path id="Back_Plate_49_" class="st2" d="M12.8,19H1.2C0.5,19,0,18.5,0,17.8L0,6.2C0,5.5,0.5,5,1.2,5h11.7C13.5,5,14,5.5,14,6.2
		v11.7C14,18.5,13.5,19,12.8,19z"/>
	<path class="st6" d="M3.4,16L6,12L3.6,8h1.9l1.3,2.5C7,10.8,7,11,7.1,11.1h0c0.1-0.2,0.2-0.4,0.3-0.6L8.8,8h1.8l-2.4,4l2.5,4H8.7
		l-1.5-2.8C7.2,13.1,7.1,13,7,12.8h0c0,0.1-0.1,0.2-0.2,0.4L5.3,16H3.4z"/>
	<rect x="16" y="12" class="st2" width="8" height="5"/>
</g>
</svg>
